<?xml version="1.0" encoding="utf-8"?>
<!-- Generator: Adobe Illustrator 19.0.0, SVG Export Plug-In . SVG Version: 6.00 Build 0)  -->
<svg version="1.1" id="Layer_1" xmlns="http://www.w3.org/2000/svg" xmlns:xlink="http://www.w3.org/1999/xlink" x="0px" y="0px"
	 viewBox="0 0 1280 800" style="enable-background:new 0 0 1280 800;" xml:space="preserve">
<style type="text/css">
	.st0{fill:#FFFFFF;}
</style>
<g>
	<path class="st0" d="M850.1,220.4c-0.4-2.1-2-3.6-4.2-3.9l-0.1,0l-0.1,0c-0.6,0-1.4,0.1-2.2,0.4c-1.8,0.7-3.3,2.6-3.9,4.9
		c-5.6,27.5-15.4,46.9-30.7,60.6l0.8-5.5l7.2-48.8c2.9-17.9,5.5-32.6,7-41.4l0.2-1.3c0.3-2-0.4-3.7-1.9-4.8
		c-1.4-1.1-3.2-1.4-4.8-0.7c-1.9,0.8-3.5,2.9-3.9,5.2c-2,12.1-3.4,20-4.3,25.4c-2,11.6-2,11.6-2.7,17.3
		c-3.9,26.9-12.4,48.7-20.2,51.9c-3.5,1.4-6.3,1.6-8.2,0.6c-1.8-1-3-3.3-3.6-6.9c-0.5-2.9-0.4-5.9,0.5-11.6c0.3-1.3,0.7-2.7,1-4
		l0-0.2c0.1-0.7,0.2-1.5,0.1-2.3c0-0.1,0-0.1,0-0.2l0.6-3.6c0.8-4.6,1.8-10.4,2.9-17.6l5.1-32.6c0.4-2-0.3-3.9-1.6-5
		c-1.3-1-3.1-1.2-4.9-0.5c-2,0.8-3.5,2.8-3.9,5l-5.3,32.7c-0.4,2.3-0.8,4.5-1.1,6.6c-1.2,6.7-2.2,12.5-2.9,17.5
		c-5.7,23.7-11.9,40.5-24,45.2c-1.2,0.5-2.2,0.5-3,0c-1.1-0.6-1.9-2.2-2.3-4.5c-0.2-1.3-0.4-4.9,0.5-14.6l0.2-0.6
		c0.3-0.9,0.3-1.8,0.2-2.7c0.3-2.7,0.7-5.7,1.1-8.8c1.7-11.6,3.5-23,5.2-33.9c1-6.2,1.9-12.4,2.9-18.6l4.7-32.4
		c0.3-1.6-0.1-3.2-1.1-4.3c-0.9-1.1-2.2-1.6-3.7-1.6l-0.1,0c-2.9,0.3-5.5,2.8-5.9,5.7l-4.8,32.5c-0.9,6.2-1.9,12.4-2.9,18.6
		c-1.8,11.4-3.6,23.1-5.2,34.2c-0.6,4.6-1,7.9-1.3,10.7c-7.3,22.6-15.9,34.1-25.6,44.4l4-24.5l5.1-33.8l0.7-3.9
		c2.7-16.4,5.1-30.6,6.6-38.6c0.4-3-0.9-4.5-1.7-5.1c-1.3-1-3.2-1.2-5-0.4c-2,0.8-3.6,2.9-3.9,5.1l-1.1,6c-3.6-3.2-9.3-5.4-17.8-1.9
		c-12.8,5.2-20.1,23.6-23.3,34.1c-4.6,15.1-6.9,33.1-5.9,46.9c-3.5,17.5-5.4,25.3-12.2,28.1c-3.1,1.3-5.5,1.4-7.4,0.5
		c5.6-18,8.1-38.5,6.2-50.3c-1.1-6.5-3.9-11.3-8.2-13.8c-4.1-2.4-9.2-2.5-15.1-0.3c-9.5,3.9-17.4,14.6-22.8,30.9
		c-3.8,11.4-6.2,21.6-7.3,31.3c-3.2,10.8-7.3,16.9-12.7,19.1c-3.1,1.3-5.6,1.4-7.4,0.5c5.6-18,8.1-38.5,6.2-50.3
		c-1.1-6.6-3.9-11.3-8.2-13.8c-4.1-2.4-9.2-2.5-15.1-0.3c-9.5,3.9-17.4,14.6-22.8,30.9c-3.4,10.1-5.6,19.2-6.9,27.9
		c-0.2,0.4-0.3,0.7-0.4,1.2c-5.6,27.5-15.4,46.8-30.7,60.6l3.2-21.9c0.9-6.4,1.8-12.4,2.7-18.2c0.7-4.8,1.4-9.3,2.1-13.7l7.1-42.5
		c0.4-2-0.3-3.9-1.6-5c-1.3-1-3.1-1.2-4.9-0.5c-2.4,1-3.7,2.7-4,5.4l-0.9,5.8c-4.1,24.2-9.4,44.6-15.8,60.7
		c-8.2,21.6-18.2,34.8-29.6,39.4c-5.8,2.1-10.2,2.1-13.5,0.2c-3.5-2-5.8-6.6-6.9-13.6c-1.4-8.4-0.9-23.6,1.2-39
		c2.6-0.7,4.6-1.4,7.2-2.4c31.2-12.6,62.2-44.3,58-78.1c-1.4-8.5-5.2-14.7-11-17.9c-5.7-3.2-12.9-3.2-20.7-0.1
		c-19.8,8-35.2,40.4-42.5,89c-7.9,1.2-14.3,0.1-19-3.3c-4.4-3.1-7.2-8.2-8.3-15.1c-0.9-5.7-0.7-12.2,0.7-19.3c1-5.6,2.8-10.9,5-15.3
		c0.7-1.2,0.9-2.5,0.6-4c-0.3-1.8-1.3-3.1-2.7-3.7c-1.2-0.4-2.5-0.4-3.7,0.1c-1.6,0.6-2.8,1.8-3.4,3.2c-2.9,6.3-5,12.7-6.2,18.9
		c-1.7,8.7-1.9,16.8-0.7,24c2.8,16.9,14,26.5,30.6,26.5c1.7,0,3.5-0.1,5.3-0.3c-1.1,9.2-2.9,27.9-0.9,40.2
		c1.7,10.2,5.5,17.1,11.5,20.5c5.6,3.3,13,3.3,21.8,0c11.8-4.8,22-15.7,30.6-32.5L481,422c-3.8,2.7-7.9,5.3-13,8.3
		c-20.2,12.5-29,25.1-26.8,38.5c1,5.9,3.7,10.2,7.7,12.5c2,1.1,4.3,1.7,6.7,1.7c2.6,0,5.4-0.6,8.3-1.9c13.3-5.6,22.4-23.5,26.8-53.1
		c15.5-11.8,26.4-25.8,34-43.7c1.4,5.1,3.7,8.6,6.9,10.4c3.4,1.9,7.8,1.8,13-0.3c7.8-3.2,15.8-13,21.7-26.5
		c4.4,1.4,9.3,1.1,14.1-0.9c3.9-1.6,7.2-4,10.1-7.5c0.1,1.2,0.3,2.4,0.5,3.6c1.2,7.2,3.8,12,7.7,14.2c3.4,1.9,7.8,1.8,13-0.3
		c7.8-3.2,15.8-13,21.7-26.5c4.4,1.4,9.3,1.1,14.1-0.9c7.4-3,11.9-8.7,15.6-20.1c3.5,4.1,8.5,4.9,14.8,2.3c4.2-1.7,8.1-4.9,11.7-9.6
		l-0.8,4.2c-0.5,3.7-1.3,8.1-2.2,12.4c-6,4.3-12.6,7.7-20.2,10.2c-22.8,7.7-33.1,24.1-31.7,36.7c1.2,10.2,10,16.3,23,16.3h0.2
		l0.2,0.3c22.7-6.4,33.5-37.8,38.1-56.5c13.2-10.5,22.7-22.2,30.3-37.7c1.3,2.6,3.1,4.6,5.4,5.7c3.2,1.6,7.1,1.6,11.3-0.1
		c10.1-4,17.7-12.7,23.8-27.4c3.1,4.6,9.3,9.1,21.4,4.2c3.6-1.4,6.7-3.8,9.6-7.3l-1.2,8.5c-4.9,3.4-9.7,6.4-13,8.3
		c-20.2,12.5-29,25.1-26.8,38.5c1,5.9,3.7,10.2,7.7,12.5c4.1,2.3,9.3,2.2,15-0.2c13.3-5.6,22.4-23.5,26.8-53.2
		c23.2-17.7,36.2-40.1,43.2-74.8l0-0.1C850.1,222,850.2,221.2,850.1,220.4z M777.4,340c-2.6,1.1-4.8,1.2-6.5,0.3
		c-1.7-0.9-2.8-2.8-3.3-5.5c-0.6-8.4,5.3-15.6,20.6-24.9c2.3-1.4,4.5-2.8,6.8-4.3C792.1,324.5,786.1,336.3,777.4,340L777.4,340z
		 M701,249.7l-2.1,12.1c-3.4,18.8-9.6,53.7-23.6,59.3v0c-1.6,0.7-2.8,0.7-3.7,0.2c-2-1.2-2.7-5.7-3.2-10c-2.7-18.7,5.4-64.4,20.8-71
		c1.2-0.5,2.4-0.7,3.5-0.7c1.1,0,2.2,0.3,3.1,0.8C698.5,241.9,700.2,245.1,701,249.7z M626.6,319.4c-2.4,1-4.1,3.4-4.2,5.8
		c-0.4,4.7,0.3,13.2,3.1,18.1c-5,12.5-10.9,20.8-16.2,23c-1.8,0.7-3.1,0.8-4.2,0.1c-1.6-0.9-2.8-3.5-3.5-7.3
		c-1.1-6.8-1.1-14.6,0-23.1c0.8-2.7,1.5-5.7,2.1-8.7c0.2-1,0.2-1.9-0.1-2.8c1.2-5.2,2.7-10.7,4.5-16.2c3.8-12.2,9.1-20.2,14.9-22.5
		c1.8-0.7,4.5-1.4,6.7-0.1c1.9,1.1,3.2,3.4,3.8,6.8c1.1,6.9,0.5,17.4-1.6,28.3c-0.2-0.3-0.5-0.5-0.7-0.7
		C630,318.9,628.3,318.7,626.6,319.4z M559.4,336.7c-2.4,1-4.1,3.3-4.2,5.8c-0.4,4.7,0.3,13.1,3.1,18c-5,12.5-10.9,20.8-16.2,23
		c-1.7,0.7-3.1,0.8-4.2,0.1c-1.6-0.9-2.8-3.5-3.5-7.3c-2.3-13.6,0-31.2,6.5-50.9c3.8-12.2,9.1-20.2,14.9-22.5
		c1.1-0.4,2.4-0.8,3.8-0.8c1,0,2,0.2,2.9,0.7c1.9,1.1,3.2,3.4,3.8,6.8c1.1,6.9,0.5,17.4-1.6,28.3c-0.2-0.3-0.5-0.5-0.7-0.7
		C562.7,336.2,561,336.1,559.4,336.7z M474.6,280.7c2,0,3.9,0.5,5.6,1.4c3.4,1.9,5.6,5.6,6.5,10.8c1.9,11.8-3.7,26.2-15.5,39.6
		c-10.6,12-24.3,21.4-37.3,25.4c6.6-42.2,19-69.7,34-75.8C470.2,281.2,472.5,280.7,474.6,280.7z M461.5,470.3
		c-2.6,1.1-4.8,1.2-6.5,0.3c-1.7-0.9-2.8-2.8-3.3-5.5c-0.6-8.4,5.3-15.6,20.6-24.9c2.3-1.4,4.5-2.8,6.8-4.3
		C476.2,454.8,470.1,466.7,461.5,470.3L461.5,470.3z M645.6,382.8c-0.9-7.4,7-17.9,23.7-23.5c4.8-1.6,9.3-3.5,13.5-5.8
		c-4.3,14-12.7,34-25.4,35.8C650.5,389.9,646.2,387.6,645.6,382.8z"/>
	<path class="st0" d="M583.5,476.1l-2.6-1.8c10-13.1,14.9-29.9,12.8-43c-1.6-11.2-6.7-19.6-14.9-24.3c-9.1-5.2-20.9-5.3-33.3-0.3
		c-37.1,15-55.7,52-48.3,96.5c0.2,1.5,1.1,2.7,2.3,3.4c1.2,0.7,2.8,0.8,4.2,0.2c2.4-1,4.7-3.8,4.2-7.1c-5.6-40.9,8.2-69.4,39.9-82.2
		c9.4-3.8,18.6-3.8,25.2,0.1c5.6,3.3,9.2,9.1,10.2,16.8c1.8,11.2-3.2,25.8-12.2,35.8c-7-1.6-16.7,0-22.9,2.5
		c-6.5,2.6-9.8,8.1-8.7,14.6c0.5,3.1,1.8,5.3,3.9,6.5c3.8,2.1,9.3,0.4,14.2-1.6c4.2-1.7,11-5.9,14.9-9.2c7.4,3.2,13,11.8,14.8,22.6
		c3.4,20.4-6.8,39.7-24.8,47c-8,3.3-15.1,3.7-19.4,1.3c-2.5-1.4-4.1-3.9-4.7-7.3c-1-6.1,2.8-13.3,8.1-15.5c3.5-1.4,7.4,0.6,9.9,5
		c1.1,2.1,3.5,2.8,5.9,1.9c1.8-0.7,3.2-2.3,3.8-4.2c0.5-1.7,0.4-3.4-0.4-4.8c-5.5-8.9-13.4-12-21.8-8.6c-6.7,2.7-11.9,8.8-14.5,15.9
		c4.5-15.9,6.5-34.3,8.5-52.5l0.2-1.8c1.7-15.2,3.4-29.6,6.5-40.9l0-0.1c1.2-5.3,5.1-11.6,8.6-13.7c1.8-1.2,3.5-3.8,2.9-7.2
		l-0.1-0.3c-0.5-1.3-1.3-2.3-2.5-2.8c-1.2-0.5-2.5-0.5-3.8,0c-6.5,2.6-12.9,13.3-15.5,22.2c-3.3,12.4-5.1,28.1-6.8,44.4l-0.3,3
		c-3.4,31.4-7.5,70.6-31.3,80.2c-5.3,2.1-10.1,2.2-13.6,0.2c-3-1.7-5-4.9-5.7-9.5c-1.8-10.8,5-25.3,13.7-28.9
		c0.9-0.4,1.7-1.2,2.3-1.2h0.1l0.1,0.5c1.6-0.2,3-0.6,4.1-2c1.2-1.5,1.7-3.4,1.4-5.2c-0.4-2.3-2.1-3.7-4.8-3.9c-2.2,0-4,0.7-5.9,1.5
		c-14,5.7-24.3,26.3-21.5,43.2c1.2,7.3,4.7,12.7,10.1,15.8c3.1,1.7,6.6,2.6,10.4,2.6c3.7,0,7.7-0.8,11.8-2.5
		c15.8-6.4,24.6-20.5,30-38.1c-0.8,3.4-1,7-0.5,10.5c1.1,6.5,4.3,11.4,9.2,14.2c3.1,1.8,6.9,2.6,11.2,2.6c5,0,10.6-1.2,16.6-3.6
		c23.4-9.5,37.3-35.1,33-60.9C595.9,491.1,590.8,481.7,583.5,476.1z M556.1,482C556.1,482,556.1,482,556.1,482l0.3,0.7l0,0
		L556.1,482z"/>
	<path class="st0" d="M829.1,357.5c-1.5-1.7-3.2-3.6-5-5.8c4.9-10.1,7.1-19.7,6-26.5l0-0.1c-0.8-3.5-2.6-6.1-5-7.3
		c-2.1-1.1-4.6-1.1-7.2-0.1c-7.8,3.2-12.7,14.4-11,25c0.6,3.9,2.1,7.5,4.5,11.2c-1.5,2.7-2.9,5.3-4.5,8.8c-0.5,1.3-0.8,2.6-0.6,3.6
		c0.3,1.8,1.3,3.3,2.6,3.8c0.8,0.4,2.1,0.7,4-0.1c1.4-0.6,2.7-1.9,3.4-3.5c0.5-1.2,1.1-2.5,1.8-3.8c10.9,12.2,14.3,16.4,15.7,24
		c2.1,14.8-6,28.6-20,34.3c-5,2-10,1.9-14-0.3c-3.6-2-5.9-5.6-6.7-10.2c-1.2-11.7,3.9-22,12.7-25.5c1.7-0.7,3.5-0.6,5.1,0.2
		c2.1,1.1,3.5,3.2,4.2,5.9c0.3,1.5,1.1,2.8,2.3,3.5c1.2,0.7,2.7,0.7,4.2,0.1c2.8-1.1,4.5-4.2,4-7.2c-1.1-5.7-4.4-10.3-8.8-12.7
		c-4.1-2.2-8.9-2.4-13.5-0.5c-14.1,5.7-22,20.3-20.7,38.1c-2.8,6.9-6.3,10.8-11.1,12.8c-2.3,0.9-4.9,0.9-6.9,0c0-0.1,0-0.2,0.1-0.3
		c0-0.1,0-0.2,0.1-0.2c4.3-14,8-34.1,5.9-48.5c-1.4-8.4-4.3-13.9-8.5-16.3c-3.3-1.9-7.3-1.8-12,0.1c-4.7,1.9-9,5.4-12.7,10.4
		c0.6-4.2,1.1-7.8,1.7-12.3c0.3-2,0.6-4.1,0.9-6.5l1.9-13.8c0.3-1.9-0.3-3.8-1.7-4.9c-1.3-1.1-3.1-1.3-4.8-0.6
		c-2.2,0.9-3.7,2.9-4.1,5.2c-0.6,4-1.2,8.7-1.6,12.4l-0.2,1.9c-0.1,1.2-3.6,25.2-6.4,44.5c-2.1,14.6-3.9,27.2-4.2,28.8l-0.1,0.9
		c-1.1,7-2.8,17.6-1.4,25.9c0.1,0.8,0.3,1.6,0.5,2.3c-1,0.8-2,1.4-3.2,1.8c-3.1,1.3-5.5,1.4-7.4,0.5c5.6-18,8.1-38.5,6.2-50.3
		c-1.1-6.6-3.9-11.3-8.2-13.8c-4.1-2.4-9.2-2.5-15.1-0.3c-9.5,3.9-17.4,14.6-22.8,30.9c-6.9,20.6-9.3,38.2-7.4,54
		c-1.4,1.4-2.9,2.4-4.5,3c-3.1,1.3-5.6,1.4-7.4,0.5c5.6-18,8.1-38.5,6.2-50.3c-1.1-6.5-3.9-11.3-8.2-13.8c-4.1-2.4-9.2-2.5-15.1-0.3
		c-9.5,3.9-17.4,14.6-22.8,30.9c-7.4,22-9.6,40.8-6.9,57.2c1.2,7.2,3.8,12,7.7,14.2c1.6,0.9,3.5,1.4,5.6,1.4c2.3,0,4.7-0.6,7.5-1.7
		c7.8-3.2,15.9-13,21.7-26.5c4.4,1.4,9.3,1.1,14.2-0.9c1.6-0.6,3.1-1.5,4.7-2.7c1.5,3.3,3.6,5.6,6.3,6.8c3.3,1.5,7.4,1.3,12.2-0.7
		c7.8-3.2,15.8-13,21.7-26.5c4.4,1.4,9.3,1.1,14.1-0.9c2-0.8,4-1.9,5.8-3.3c3.3,2.6,7.8,2.7,13.4,0.5c10.1-4.1,18.1-13.1,24.3-27.6
		c3.9,1.6,8.5,1.5,13.3-0.5c5.3-2.2,9.7-5.8,13.3-11c6.4,8.6,17.7,11.3,29,6.7c19.5-7.9,31.1-27.7,28.1-48.3
		C842.2,372.5,837.6,367.2,829.1,357.5z M817.6,340.7c-0.2-0.6-0.3-1.1-0.4-1.7c-0.4-2.3-0.5-5.6,1.1-8.4c0.4-0.7,0.8-1.2,1-1.5
		C819.8,332.2,818.9,336.7,817.6,340.7z M753.4,405.6c-2.2,0.9-3.7,3.1-4,5.7c-0.6,4.1-0.2,7.2,0.3,10c0.5,3.1,1.4,5.7,2.7,8
		c-4.8,12.8-11.2,21.2-18.5,24.1c-1.7,0.7-2.9,0.8-3.8,0.3c-1.2-0.6-2-2.5-2.5-5.4c-0.6-3.5-0.2-8.8,1.1-17.9
		c3.4-18.9,9.8-54,23.9-59.7c0.9-0.4,1.6-0.5,2.3-0.5c0.5,0,0.9,0.1,1.3,0.3c1.9,1.1,2.9,5.2,3.5,9.1c1.1,6.9,0.7,17-1.2,26.9
		c-0.2-0.2-0.4-0.3-0.6-0.5C756.7,405.1,755,405,753.4,405.6z M695.9,436.9c-2.4,1-4.1,3.3-4.2,5.8c-0.4,4.7,0.3,13.1,3.1,18
		c-4.9,12.3-11,20.9-16.2,23c-1.7,0.7-3.1,0.8-4.2,0.1c-1.6-0.9-2.8-3.5-3.5-7.3c-2.3-13.6,0-31.2,6.5-50.9
		c3.8-12.2,9.1-20.2,14.9-22.5c1.1-0.4,2.4-0.8,3.8-0.8c1,0,2,0.2,2.9,0.7c1.9,1.1,3.2,3.4,3.8,6.8c1.1,6.9,0.5,17.4-1.6,28.3
		c-0.2-0.3-0.5-0.5-0.7-0.7C699.3,436.4,697.6,436.2,695.9,436.9z M636.8,460.8c-2.4,1-4.1,3.3-4.2,5.8c-0.4,4.7,0.3,13.1,3.1,18
		c-5,12.5-10.9,20.8-16.2,23c-1.7,0.7-3.1,0.8-4.2,0.1c-1.6-0.9-2.8-3.5-3.5-7.3c-2.3-13.6,0-31.2,6.5-50.9
		c3.8-12.2,9.1-20.2,14.9-22.5c1.1-0.4,2.4-0.8,3.8-0.8c1,0,2,0.2,2.9,0.7c1.9,1.1,3.2,3.4,3.8,6.8c1.1,6.9,0.5,17.4-1.6,28.3
		c-0.2-0.3-0.5-0.5-0.7-0.7C640.1,460.3,638.5,460.1,636.8,460.8z"/>
</g>
</svg>
